<?xml version="1.0" encoding="UTF-8" standalone="no"?><svg xmlns="http://www.w3.org/2000/svg" xmlns:xlink="http://www.w3.org/1999/xlink" fill="#ffffff" height="90" preserveAspectRatio="xMidYMid" version="1.1" viewBox="-7.9 0.0 519.9 210.2" width="90" zoomAndPan="magnify">
 <g>
  <path d="m93.552 27.103c-6.001 7.101-15.602 12.702-25.203 11.901-1.2-9.601 3.501-19.802 9.001-26.103 6.001-7.3004 16.502-12.501 25-12.901 1 10.001-2.897 19.802-8.798 27.103zm8.698 13.802c-13.899-0.8-25.8 7.901-32.401 7.901-6.7 0-16.802-7.501-27.803-7.301-14.301 0.2-27.603 8.301-34.904 21.202-15.002 25.803-3.9003 64.003 10.601 85.013 7.101 10.4 15.602 21.8 26.803 21.4 10.602-0.4 14.802-6.9 27.604-6.9 12.901 0 16.602 6.9 27.803 6.7 11.597-0.2 18.897-10.4 26.007-20.8 8.1-11.8 11.4-23.31 11.6-23.91-0.2-0.2-22.41-8.7-22.61-34.3-0.2-21.402 17.51-31.603 18.31-32.203-10-14.802-25.61-16.402-31.01-16.802zm80.31-29.004v155.92h24.21v-53.31h33.5c30.6 0 52.1-20.999 52.1-51.403 0-30.403-21.1-51.206-51.3-51.206h-58.51zm24.21 20.403h27.9c21 0 33 11.201 33 30.903s-12 31.004-33.1 31.004h-27.8v-61.907zm129.81 136.72c15.2 0 29.3-7.7 35.7-19.9h0.5v18.7h22.41v-77.61c0-22.502-18.01-37.004-45.71-37.004-25.7 0-44.7 14.702-45.4 34.904h21.8c1.8-9.601 10.7-15.902 22.9-15.902 14.8 0 23.1 6.901 23.1 19.603v8.599l-30.2 1.8c-28.1 1.7-43.3 13.2-43.3 33.21 0 20.2 15.7 33.6 38.2 33.6zm6.5-18.5c-12.9 0-21.1-6.2-21.1-15.7 0-9.81 7.9-15.51 23-16.41l26.9-1.7v8.8c0 14.61-12.4 25.01-28.8 25.01zm82.01 59.7c23.6 0 34.7-9 44.41-36.3l42.5-119.21-24.6-0.004-28.51 92.114h-0.5l-28.5-92.114h-25.3l41 113.51-2.2 6.9c-3.7 11.7-9.7 16.2-20.4 16.2-1.9 0-5.6-0.2-7.1-0.4v18.7c1.4 0.4 7.4 0.6 9.2 0.6z"/>
 </g>
</svg>