<?xml version="1.0" encoding="UTF-8"?><svg xmlns="http://www.w3.org/2000/svg" xmlns:xlink="http://www.w3.org/1999/xlink" height="79.8" preserveAspectRatio="xMidYMid meet" version="1.0" viewBox="4.3 3.6 119.7 79.8" width="79" zoomAndPan="magnify"><g id="change1_1"><path d="M48.37 15.14H83.03V71.75H48.37z" fill="#ff5f00"/></g><g id="change2_1"><path d="M51.94,43.45a35.94,35.94,0,0,1,13.75-28.3,36,36,0,1,0,0,56.61A35.94,35.94,0,0,1,51.94,43.45Z" fill="#eb001b"/></g><g id="change3_1"><path d="M120.5,65.76V64.6H121v-.24h-1.19v.24h.47v1.16Zm2.31,0v-1.4h-.36l-.42,1-.42-1h-.36v1.4h.26V64.7l.39.91h.27l.39-.91v1.06Z" fill="#f79e1b"/></g><g id="change3_2"><path d="M123.94,43.45a36,36,0,0,1-58.25,28.3,36,36,0,0,0,0-56.61,36,36,0,0,1,58.25,28.3Z" fill="#f79e1b"/></g></svg>