<?xml version="1.0" encoding="UTF-8"?><svg xmlns="http://www.w3.org/2000/svg" xmlns:xlink="http://www.w3.org/1999/xlink" height="50" preserveAspectRatio="xMidYMid meet" version="1.0" viewBox="7.9 7.9 496.2 496.2" width="50" zoomAndPan="magnify"><g id="change1_1"><path d="m7.9 256c0-137 111.1-248.1 248.1-248.1s248.1 111.1 248.1 248.1-111.1 248.1-248.1 248.1-248.1-111.1-248.1-248.1z" fill="#f3f2f2"/></g><g fill="#293688" id="change2_2"><path d="m191.6 303.6 19-112.1h30.8l-19 112.1z" fill="inherit"/><path d="m331.8 194.4c-6.1-2.3-15.6-4.7-27.5-4.7-30.4 0-51.8 15.2-52 37-.2 16.1 15.3 25.1 26.9 30.5 12 5.5 16 9 15.9 13.9-.1 7.5-9.6 10.9-18.4 10.9-12.3 0-18.8-1.7-28.9-5.9l-4-1.8-4.3 25.1c7.2 3.1 20.5 5.8 34.2 6 32.3 0 53.3-15 53.5-38.3.1-12.7-8.1-22.5-25.8-30.5-10.7-5.2-17.3-8.6-17.3-13.9 0-4.7 5.6-9.6 17.6-9.6 10.1-.2 17.3 2 23 4.3l2.8 1.3z" fill="inherit"/><path d="m384.2 191.5c-7.4 0-12.7 2.2-15.9 9.5l-45.5 102.5h32.5l6.3-17.2h38.9l3.6 17.2h28.9l-25.3-112.1h-23.5zm-14 72.5c2.5-6.5 12.2-31.3 12.2-31.3-.2.3 2.5-6.5 4.1-10.7l2.1 9.7s5.9 26.8 7.1 32.4h-25.5z" fill="inherit"/><path d="m135.6 268.3-2.7-15.4c-5.6-17.9-23-37.3-42.5-47l27.2 97.6h32.5l48.8-112.1h-32.5z" fill="inherit"/></g><g fill="#f7981d" id="change3_1"><path d="m56.9 191.5v1.8c38.6 9.3 65.3 32.7 75.9 59.7l-11.1-51.9c-1.9-7.1-7.5-9.3-14.2-9.6z" fill="inherit"/><path d="m256 504.1c95.8 0 178.8-54.3 220.1-133.7h-440.2c41.3 79.4 124.4 133.7 220.1 133.7z" fill="inherit"/></g><g id="change2_1"><path d="m256 7.9c-94.2 0-176.2 52.5-218.2 129.9h436.4c-42-77.3-124-129.9-218.2-129.9z" fill="#293688"/></g></svg>