<?xml version="1.0" encoding="UTF-8"?><svg xmlns="http://www.w3.org/2000/svg" xmlns:xlink="http://www.w3.org/1999/xlink" height="255.2" preserveAspectRatio="xMidYMid" version="1.1" viewBox="0.0 -0.0 255.4 255.2" width="255.4" zoomAndPan="magnify">
 <g>
  <path d="m53.841 161.32c0 14.83-11.987 26.82-26.819 26.82s-26.819-11.99-26.819-26.82c0.00017-14.83 11.987-26.82 26.819-26.82h26.819v26.82zm13.41 0c0-14.83 11.987-26.82 26.819-26.82 14.83 0 26.82 11.99 26.82 26.82v67.05c0 14.83-11.99 26.82-26.82 26.82-14.832 0-26.819-11.99-26.819-26.82v-67.05z" fill="#E01E5A"/>
  <path d="m94.07 53.638c-14.832 0-26.819-11.987-26.819-26.819s11.987-26.819 26.819-26.819c14.83-7.1054e-15 26.82 11.987 26.82 26.819v26.819h-26.82zm0 13.613c14.83 0 26.82 11.987 26.82 26.819 0 14.83-11.99 26.82-26.82 26.82h-67.251c-14.832 0-26.819-11.99-26.819-26.82 0-14.832 11.987-26.819 26.819-26.819h67.251z" fill="#36C5F0"/>
  <path d="m201.55 94.07c0-14.832 11.99-26.819 26.82-26.819s26.82 11.987 26.82 26.819c0 14.83-11.99 26.82-26.82 26.82h-26.82v-26.82zm-13.41 0c0 14.83-11.99 26.82-26.82 26.82s-26.82-11.99-26.82-26.82v-67.251c0-14.832 11.99-26.819 26.82-26.819 14.83-1.4211e-14 26.82 11.987 26.82 26.819v67.251z" fill="#2EB67D"/>
  <path d="m161.32 201.55c14.83 0 26.82 11.99 26.82 26.82s-11.99 26.82-26.82 26.82-26.82-11.99-26.82-26.82v-26.82h26.82zm0-13.41c-14.83 0-26.82-11.99-26.82-26.82s11.99-26.82 26.82-26.82h67.25c14.83 0 26.82 11.99 26.82 26.82s-11.99 26.82-26.82 26.82h-67.25z" fill="#ECB22E"/>
 </g>
</svg>